<?xml version="1.0" encoding="UTF-8"?>
<svg id="svg5" xmlns="http://www.w3.org/2000/svg" version="1.1" xmlns:inkscape="http://www.inkscape.org/namespaces/inkscape" xmlns:sodipodi="http://sodipodi.sourceforge.net/DTD/sodipodi-0.dtd" xmlns:svg="http://www.w3.org/2000/svg" viewBox="0 0 2206.8 524.7">
  <!-- Generator: Adobe Illustrator 29.1.0, SVG Export Plug-In . SVG Version: 2.1.0 Build 142)  -->
  <defs>
    <style>
      .st0 {
        fill: #fff;
      }
    </style>
  </defs>
  <path class="st0" d="M78.4,5.7l104.6,293.3.4-293.3h81.7v485.2c-20.7,4.1-41.7,5.4-62.6,7.6-7.4.8-16.1,2.7-23.3,3s-2.2.2-3-.8L83.6,230.7v282.7l-81.7,11.2h-.7V5.7h77.2Z"/>
  <path class="st0" d="M2007.4,5.7l52.9,135.8,57.3-135.8h88.5l-102.7,246.4,101.9,271.8c-30.3-3.3-60.5-9.2-90.5-14.4l-56.8-146.8-1.5-2.2-58.9,137.2-86.9-10.5,104-237.5L1920.4,5.7h87Z"/>
  <polygon class="st0" points="568 5.7 568 86.7 424.8 86.7 424.8 196.2 532.7 194.7 532.7 274.9 424.8 276.4 424.8 397.2 568 388.9 568 466.9 343.8 484.2 343.8 5.7 568 5.7"/>
  <polygon class="st0" points="1433.1 5.7 1433.1 86.7 1286.9 86.7 1286.9 190.2 1397.1 190.2 1397.1 271.2 1286.9 271.2 1286.9 454.9 1207.4 454.9 1207.4 5.7 1433.1 5.7"/>
  <polygon class="st0" points="869.3 5.7 869.3 86.7 785.4 86.7 785.4 459.4 704.4 460.9 704.4 86.7 620.4 86.7 620.4 5.7 869.3 5.7"/>
  <polygon class="st0" points="1565.1 5.7 1565.1 384.4 1703 391.2 1703 471.4 1484.4 460.2 1484.1 5.7 1565.1 5.7"/>
  <path class="st0" d="M1850.7,5.7v476.6c-10.2.1-20.8-1.8-31.1-2.6-16.1-1.2-32.3-1.6-48.4-3V5.7h79.5Z"/>
  <path id="rect529" class="st0" d="M997.1,5.7c-54.6,0-98.6,44-98.6,98.6v258.3c0,54.6,44,98.6,98.6,98.6h66c54.6,0,98.6-44,98.6-98.6V104.3c0-54.6-44-98.6-98.6-98.6h-66ZM1024.9,85.3h11.5c33.6,0,45.7,20,45.7,53.7v186.9c0,33.6-12.1,55.7-45.7,55.7h-11.5c-33.6,0-46.7-20.3-46.7-53.9v-186.9c0-33.6,13.1-55.4,46.7-55.4h0Z" sodipodi:nodetypes="ssssssssssssssssss"/>
</svg>